PathFileType	4	(X/Y/Z)	C:\Users\86182\Documents\cortex\Trimmed_M1_H3.trc
DataRate	CameraRate	NumFrames	NumMarkers	Units	OrigDataRate	OrigDataStartFrame	OrigNumFrames
100.00	100.00	       84	2	mm	100.00	381	       951
Frame#	Time	gripper			box			
		X1	Y1	Z1	X2	Y2	Z2	

381	3.800	215.86237	201.25096	288.45325	205.57626	201.18175	157.07843	
382	3.810	215.90434	201.27078	288.43021	205.57932	201.17433	157.07898	
383	3.820	215.88107	201.25980	288.44299	205.57846	201.16325	157.07843	
384	3.830	215.90434	201.27078	288.43021	205.57393	201.15144	157.07788	
385	3.840	215.90434	201.27078	288.43021	205.56686	201.14151	157.07814	
386	3.850	215.85974	201.27658	288.43402	205.55920	201.13544	157.07941	
387	3.860	215.75076	201.29065	288.44284	205.55289	201.13429	157.08147	
388	3.870	215.80968	201.28348	288.44052	205.54907	201.13805	157.08392	
389	3.880	215.90434	201.27078	288.43021	205.54791	201.14561	157.08630	
390	3.890	215.90434	201.27078	288.43021	205.54869	201.15494	157.08823	
391	3.900	215.90434	201.27078	288.43021	205.55019	201.16344	157.08943	
392	3.910	215.94318	201.28922	288.41647	205.55122	201.16887	157.08983	
393	3.920	215.93205	201.28394	288.42041	205.55107	201.16995	157.08952	
394	3.930	215.90434	201.27078	288.43021	205.54958	201.16669	157.08859	
395	3.940	215.90434	201.27078	288.43021	205.54733	201.16048	157.08716	
396	3.950	215.84505	201.27873	288.43668	205.54544	201.15373	157.08545	
397	3.960	215.88054	201.27397	288.43283	205.54509	201.14893	157.08388	
398	3.970	215.83315	201.28033	288.43802	205.54694	201.14745	157.08289	
399	3.980	215.88132	201.26714	288.43384	205.55066	201.14917	157.08269	
400	3.990	215.90434	201.27078	288.43021	205.55525	201.15305	157.08324	
401	4.000	215.90434	201.27078	288.43021	205.55983	201.15804	157.08412	
402	4.010	215.90434	201.27078	288.43021	205.56386	201.16341	157.08485	
403	4.020	215.90434	201.27078	288.43021	205.56708	201.16852	157.08508	
404	4.030	215.87175	201.25540	288.44809	205.56902	201.17256	157.08479	
405	4.040	215.90434	201.27078	288.43021	205.56885	201.17441	157.08424	
406	4.050	215.90434	201.27078	288.43021	205.56581	201.17303	157.08377	
407	4.060	215.91447	201.28291	288.42371	205.56000	201.16805	157.08345	
408	4.070	215.90825	201.28714	288.42303	205.55238	201.16017	157.08318	
409	4.080	215.83195	201.29027	288.43198	205.54456	201.15131	157.08295	
410	4.090	215.76242	201.28908	288.44156	205.53824	201.14400	157.08311	
411	4.100	215.82240	201.27135	288.43869	205.53477	201.14029	157.08417	
412	4.110	215.88054	201.27397	288.43283	205.53452	201.14063	157.08614	
413	4.120	215.90434	201.27078	288.43021	205.53682	201.14404	157.08852	
414	4.130	215.90434	201.27078	288.43021	205.54082	201.14897	157.09055	
415	4.140	215.86707	201.25319	288.45065	205.54597	201.15417	157.09157	
416	4.150	215.90434	201.27078	288.43021	205.55234	201.15903	157.09111	
417	4.160	215.87175	201.25540	288.44809	205.56029	201.16357	157.08888	
418	4.170	215.90434	201.27078	288.43021	205.57019	201.16814	157.08478	
419	4.180	215.90434	201.27078	288.43021	205.58199	201.17290	157.07903	
420	4.190	215.91547	201.27606	288.42630	205.59459	201.17767	157.07240	
421	4.200	215.94865	201.29182	288.41455	205.60599	201.18202	157.06625	
422	4.210	215.97067	201.30228	288.40674	205.61371	201.18544	157.06206	
423	4.220	215.94518	201.31911	288.40411	205.61601	201.18771	157.06088	
424	4.230	215.95970	201.29706	288.41061	205.61246	201.18898	157.06294	
425	4.240	215.95421	201.29446	288.41257	205.60411	201.18942	157.06754	
426	4.250	215.90434	201.27078	288.43021	205.59311	201.18904	157.07339	
427	4.260	215.90434	201.27078	288.43021	205.58159	201.18755	157.07922	
428	4.270	215.90434	201.27078	288.43021	205.57101	201.18434	157.08412	
429	4.280	215.90434	201.27078	288.43021	205.56198	201.17923	157.08765	
430	4.290	215.90434	201.27078	288.43021	205.55481	201.17288	157.08963	
431	4.300	215.90434	201.27078	288.43021	205.54980	201.16676	157.09009	
432	4.310	215.90434	201.27078	288.43021	205.54732	201.16235	157.08917	
433	4.320	215.90434	201.27078	288.43021	205.54767	201.16075	157.08733	
434	4.330	215.84505	201.27873	288.43668	205.55090	201.16220	157.08504	
435	4.340	215.79790	201.28505	288.44183	205.55653	201.16585	157.08275	
436	4.350	215.93205	201.28394	288.42041	205.56354	201.17020	157.08063	
437	4.360	215.90434	201.27078	288.43021	205.57083	201.17389	157.07883	
438	4.370	215.90434	201.27078	288.43021	205.57748	201.17633	157.07741	
439	4.380	215.90434	201.27078	288.43021	205.58281	201.17749	157.07642	
440	4.390	215.90434	201.27078	288.43021	205.58621	201.17734	157.07596	
441	4.400	215.92650	201.28130	288.42239	205.58742	201.17574	157.07613	
442	4.410	215.94865	201.29182	288.41455	205.58653	201.17282	157.07692	
443	4.420	215.90990	201.27342	288.42825	205.58363	201.16916	157.07837	
444	4.430	215.92102	201.27869	288.42432	205.57898	201.16557	157.08054	
445	4.440	215.86864	201.27557	288.43414	205.57336	201.16281	157.08310	
446	4.450	215.90434	201.27078	288.43021	205.56813	201.16141	157.08553	
447	4.460	215.90434	201.27078	288.43021	205.56430	201.16158	157.08739	
448	4.470	215.90434	201.27078	288.43021	205.56204	201.16322	157.08864	
449	4.480	215.90434	201.27078	288.43021	205.56082	201.16591	157.08949	
450	4.490	215.90434	201.27078	288.43021	205.56000	201.16891	157.09018	
451	4.500	215.90434	201.27078	288.43021	205.55927	201.17148	157.09079	
452	4.510	215.93762	201.28658	288.41846	205.55859	201.17302	157.09126	
453	4.520	215.90434	201.27078	288.43021	205.55804	201.17331	157.09157	
454	4.530	215.93205	201.28394	288.42041	205.55760	201.17245	157.09174	
455	4.540	215.92650	201.28130	288.42239	205.55725	201.17078	157.09181	
456	4.550	215.93762	201.28658	288.41846	205.55685	201.16859	157.09190	
457	4.560	215.88054	201.27397	288.43283	205.55624	201.16629	157.09215	
458	4.570	215.91547	201.27606	288.42630	205.55539	201.16432	157.09259	
459	4.580	215.90434	201.27078	288.43021	205.55450	201.16315	157.09311	
460	4.590	215.90434	201.27078	288.43021	205.55391	201.16299	157.09346	
461	4.600	215.90434	201.27078	288.43021	205.55392	201.16396	157.09346	
462	4.610	215.90434	201.27078	288.43021	205.55475	201.16594	157.09294	
463	4.620	215.90434	201.27078	288.43021	205.55641	201.16862	157.09183	
464	4.630	215.90434	201.27078	288.43021	205.55881	201.17145	157.09015	
